# xmcd
#
# Track frame offsets: 
#        150
#        16938
#        29766
#        38534
#        51194
#        73402
#        87979
#        104313
#        118176
#        132508
#        147516
#        162234
#        186168
#        205191
#        230524
#        247779
#        258042
#        275739
#        288654
#        302378
#        318785
#
# Disc length: 4719 seconds
#
# Revision: 0
# Processed by: cddbd v1.5.2PL0 Copyright (c) Steve Scherf et al.
# Submitted via: ExactAudioCopy v1.3
#
DISCID=32126d15
DTITLE=Tony Joe White - Swamp Fox - The Definitive Collection 1968-197
DTITLE=3 [CD 1)
DYEAR=2015
DGENRE=Blues Rock
TTITLE0=Polk Salad Annie
TTITLE1=Wichita Lineman
TTITLE2=Soul Francisco
TTITLE3=Aspen Colorado
TTITLE4=Willie And Laura Mae Jones
TTITLE5=Who's Making Love
TTITLE6=Rainy Night In Georgia
TTITLE7=Roosevelt And Ira Lee (Night Of The Mossacin)
TTITLE8=Old Man Willis
TTITLE9=For Le Ann
TTITLE10=Woman With Soul
TTITLE11=I Want You
TTITLE12=I Thought I Knew You Well
TTITLE13=Stud-Spider
TTITLE14=High Sheriff Of Calhoun Parrish
TTITLE15=Save Your Sugar For Me
TTITLE16=Conjure Woman
TTITLE17=Hard To Handle
TTITLE18=Groupy Girl
TTITLE19=What Does It Take (To Win Your Love)
TTITLE20=Boom Boom
EXTD=
EXTT0=
EXTT1=
EXTT2=
EXTT3=
EXTT4=
EXTT5=
EXTT6=
EXTT7=
EXTT8=
EXTT9=
EXTT10=
EXTT11=
EXTT12=
EXTT13=
EXTT14=
EXTT15=
EXTT16=
EXTT17=
EXTT18=
EXTT19=
EXTT20=
PLAYORDER=
